<svg xmlns="http://www.w3.org/2000/svg" version="1.1" xmlns:xlink="http://www.w3.org/1999/xlink" xmlns:svgjs="http://svgjs.com/svgjs" width="512" height="512" x="0" y="0" viewBox="0 0 512 512" style="enable-background:new 0 0 512 512" xml:space="preserve" class=""><g><linearGradient id="b" x1="74.98" x2="437.019" y1="437.019" y2="74.98" gradientUnits="userSpaceOnUse"><stop offset="0" stop-color="#008a4c"></stop><stop offset="1" stop-color="#d3ff33"></stop></linearGradient><radialGradient id="c" cx="286.422" cy="274.253" r="294.328" gradientUnits="userSpaceOnUse"><stop offset="0" stop-color="#008a4c" stop-opacity=".4"></stop><stop offset="1" stop-color="#d3ff33" stop-opacity="0"></stop></radialGradient><linearGradient id="a"><stop offset="0" stop-color="#00703e"></stop><stop offset=".5" stop-color="#008547"></stop><stop offset=".561" stop-color="#128f45"></stop><stop offset=".682" stop-color="#41aa41"></stop><stop offset=".852" stop-color="#8cd63a"></stop><stop offset="1" stop-color="#d3ff33"></stop></linearGradient><linearGradient xlink:href="#a" id="d" x1="195.827" x2="496.995" y1="504.404" y2="203.235" gradientUnits="userSpaceOnUse"></linearGradient><radialGradient id="e" cx="351.331" cy="241.342" r="119.96" gradientUnits="userSpaceOnUse"><stop offset="0" stop-color="#00703e" stop-opacity=".8"></stop><stop offset=".134" stop-color="#007640" stop-opacity=".693"></stop><stop offset=".553" stop-color="#008145" stop-opacity=".357"></stop><stop offset="1" stop-color="#008547" stop-opacity="0"></stop></radialGradient><linearGradient xlink:href="#a" id="f" x1="165.024" x2="792.888" y1="483.133" y2="-144.731" gradientUnits="userSpaceOnUse"></linearGradient><linearGradient xlink:href="#a" id="g" x1="33.376" x2="715.786" y1="650.809" y2="-31.601" gradientUnits="userSpaceOnUse"></linearGradient><linearGradient id="h" x1="297.382" x2="297.382" y1="447.67" y2="255.79" gradientUnits="userSpaceOnUse"><stop offset="0" stop-color="#008547" stop-opacity="0"></stop><stop offset=".447" stop-color="#008145" stop-opacity=".357"></stop><stop offset=".866" stop-color="#007640" stop-opacity=".693"></stop><stop offset="1" stop-color="#00703e" stop-opacity=".8"></stop></linearGradient><linearGradient id="i" x1="154.836" x2="576.225" y1="428.735" y2="7.346" gradientUnits="userSpaceOnUse"><stop offset="0" stop-color="#95e12e"></stop><stop offset=".8" stop-color="#ddff59"></stop><stop offset="1" stop-color="#e6fe7f"></stop></linearGradient><linearGradient id="j" x1="48.244" x2="48.98" y1="247.566" y2="246.83" gradientUnits="userSpaceOnUse"><stop offset="0" stop-color="#ffcb00"></stop><stop offset="1" stop-color="#fffa78"></stop></linearGradient><linearGradient xlink:href="#a" id="k" x1="-86.665" x2="666.293" y1="446.245" y2="-306.714" gradientUnits="userSpaceOnUse"></linearGradient><linearGradient xlink:href="#a" id="l" x1="-69.933" x2="479.648" y1="601.449" y2="51.868" gradientUnits="userSpaceOnUse"></linearGradient><linearGradient xlink:href="#a" id="m" x1="-161.83" x2="662.948" y1="667.944" y2="-156.834" gradientUnits="userSpaceOnUse"></linearGradient><linearGradient xlink:href="#a" id="n" x1="-76.132" x2="667.002" y1="560.385" y2="-182.749" gradientUnits="userSpaceOnUse"></linearGradient><linearGradient id="o" x1="361.898" x2="394.713" y1="122.344" y2="89.529" gradientUnits="userSpaceOnUse"><stop offset="0" stop-color="#00703e"></stop><stop offset=".143" stop-color="#0e7b3c"></stop><stop offset=".414" stop-color="#339738"></stop><stop offset=".782" stop-color="#6fc432"></stop><stop offset="1" stop-color="#95e12e"></stop></linearGradient><radialGradient id="p" cx="366.994" cy="117.246" r="10.173" gradientUnits="userSpaceOnUse"><stop offset="0" stop-color="#008547" stop-opacity="0"></stop><stop offset=".149" stop-color="#008145" stop-opacity=".119"></stop><stop offset="1" stop-color="#00703e" stop-opacity=".8"></stop></radialGradient><linearGradient xlink:href="#a" id="q" x1="-703.179" x2="516.828" y1="1244.134" y2="24.127" gradientUnits="userSpaceOnUse"></linearGradient><linearGradient xlink:href="#a" id="r" x1="-572.162" x2="846.728" y1="1147.413" y2="-271.476" gradientUnits="userSpaceOnUse"></linearGradient><circle cx="256" cy="256" r="256" fill="url(#b)" data-original="url(#b)"></circle><circle cx="256" cy="256" r="256" fill="url(#c)" data-original="url(#c)" class=""></circle><path fill="url(#d)" d="M384.796 283.703a4443.436 4443.436 0 0 1-.22 33.263c-.057 5.551-2.166 10.912-5.925 15.107-2.843 3.172-2.606 7.968.52 10.698a7.456 7.456 0 0 0 5.034 1.828 7.936 7.936 0 0 0 5.787-2.643c6.288-7 9.83-15.914 9.935-25.131.127-11.053.207-22.107.243-33.16l-15.374.038z" data-original="url(#d)"></path><path fill="url(#e)" d="M384.796 283.703a4443.436 4443.436 0 0 1-.22 33.263c-.057 5.551-2.166 10.912-5.925 15.107-2.843 3.172-2.606 7.968.52 10.698a7.456 7.456 0 0 0 5.034 1.828 7.936 7.936 0 0 0 5.787-2.643c6.288-7 9.83-15.914 9.935-25.131.127-11.053.207-22.107.243-33.16l-15.374.038z" data-original="url(#e)"></path><path fill="url(#f)" d="M261.804 293.174c-.037 39.915-.173 79.831-.408 119.746-.033 5.779 3.126 11.053 8.164 13.639a9776.729 9776.729 0 0 0 29.963 15.255 10152.71 10152.71 0 0 0 1.413-148.692c-13.045.024-26.089.041-39.132.052z" data-original="url(#f)"></path><path fill="url(#g)" d="M329.43 439.517a7643.39 7643.39 0 0 1-22.832-11.475c.172-10.042.327-20.085.465-30.127 2.127-2.141 4.256-4.281 6.387-6.421 5.787-5.815 9.118-13.637 9.223-21.75.332-25.557.535-51.115.609-76.672-10.246.026-20.493.047-30.739.064a11593.32 11593.32 0 0 1-1.045 135.122c-.076 5.769 3.027 11.013 8.025 13.555a7561.733 7561.733 0 0 0 22.476 11.332c3.614 1.824 8.269.497 10.343-3.217 2.145-3.842.815-8.54-2.912-10.411z" data-original="url(#g)"></path><path fill="url(#h)" d="M313.45 391.494c5.787-5.815 9.118-13.637 9.223-21.75.332-25.557.535-51.115.609-76.672-20.493.051-40.985.085-61.478.101-.037 39.915-.173 79.831-.408 119.746-.033 5.779 3.126 11.053 8.164 13.639A8603.819 8603.819 0 0 0 322 453.145c3.614 1.824 8.269.497 10.343-3.217 2.146-3.843.816-8.541-2.912-10.412a7643.39 7643.39 0 0 1-22.832-11.475c.172-10.042.327-20.085.465-30.127 2.126-2.139 4.255-4.28 6.386-6.42z" data-original="url(#h)"></path><path fill="url(#i)" d="M428.161 136.498a5693.057 5693.057 0 0 0-75.822-2.104c.534 20.314.959 40.627 1.274 60.94a7776.296 7776.296 0 0 1 6.044 30.653c-47.918 7.205-95.923 14.779-143.962 22.428-.019 33.318.004 66.637.068 99.955 15.309.026 30.617.017 45.926-.026 16.897-.052 30.705-13.876 30.781-30.813 20.47-.071 40.94-.178 61.41-.323 42.351-.425 77.328-34.479 76.934-75.763a3341.097 3341.097 0 0 0-2.653-104.947z" data-original="url(#i)" class=""></path><path fill="url(#j)" d="M48.572 247.382c0-.044.007-.087.008-.131 0-.054-.003-.107-.003-.162l-.005.293z" data-original="url(#j)"></path><path fill="url(#k)" d="M130.304 281.919c-2.971 1.885-5.941 3.769-8.91 5.649-7.802 4.943-17.208 7.584-27.289 7.014-23.404-1.357-42.522-20.111-43.564-43.001-.672-14.71 5.947-28.032 16.549-36.94 2.402-2.017 3.383-5.223 2.413-8.113-1.682-5.012-8.044-6.488-12.107-2.859-13.891 12.414-22.184 29.829-22.285 48.215-.2 35.569 29.904 64.872 66.381 65.248 13.124.101 26.247.186 39.371.256a11242.616 11242.616 0 0 1-10.559-35.469z" data-original="url(#k)"></path><path fill="url(#l)" d="M121.431 298.078c.049 10.596 8.766 19.248 19.431 19.31 4.484.024 8.967.046 13.451.067 8.479.037 15.381 6.928 15.427 15.4.151 26.594.4 53.188.746 79.782.076 5.767 3.342 11.086 8.435 13.762a37032.603 37032.603 0 0 0 30.302 15.844c-.088-14.643-.164-29.286-.23-43.93 9.741-61.925 20.03-123.931 30.109-185.911-36.172 23.18-72.565 46.523-108.799 69.516-5.553 3.526-8.901 9.612-8.872 16.16z" data-original="url(#l)"></path><path fill="url(#m)" d="M381.045 89.65c-8.36-.299-16.092 1.763-22.678 5.599.179-.207-58.31 34.173-58.474 34.346-7.727 4.582-12.877 13.14-12.788 22.982.128 14.838 12.186 26.932 26.966 27.066 23.252.218 46.503.53 69.755.935 25.343.39 45.376-19.28 44.335-44.08-1.05-24.794-22.327-45.917-47.116-46.848z" data-original="url(#m)" class=""></path><path fill="url(#n)" d="M366.236 94.451c-12.431-.396-22.212 9.596-21.903 22.238.313 12.644 10.726 23.074 23.313 23.353 12.585.275 22.475-9.61 22.008-22.135-.468-12.523-10.99-23.06-23.418-23.456z" data-original="url(#n)"></path><path fill="url(#o)" d="M374.547 117.455c.139 4.19-3.144 7.495-7.324 7.39-4.18-.106-7.662-3.593-7.783-7.796s3.151-7.52 7.313-7.401 7.656 3.618 7.794 7.807z" data-original="url(#o)"></path><path fill="url(#p)" d="M374.547 117.455c.139 4.19-3.144 7.495-7.324 7.39-4.18-.106-7.662-3.593-7.783-7.796s3.151-7.52 7.313-7.401 7.656 3.618 7.794 7.807z" data-original="url(#p)"></path><path fill="url(#q)" d="M215.7 240.766c5.102 25.617 10.246 51.244 15.367 76.869-.006-16.982 13.76-30.75 30.742-30.758 25.62-.015 51.241-.049 76.861-.102 10.285-15.29 20.527-30.52 30.679-45.664-51.216-.264-102.432-.379-153.649-.345z" data-original="url(#q)"></path><path fill="url(#r)" d="m353.613 195.335.013.974c.153 11.23-11.62 18.507-21.847 13.527-2.598-1.251-5.195-2.503-7.791-3.755-10.974-5.291-23.4-7.713-36.276-7.777-18.343-.094-35.388 5.355-49.658 14.781-23.718 15.678-37.759 42.59-37.736 71.046.03 48.124.223 96.247.581 144.371.044 5.777 3.266 11.091 8.324 13.742.02.016 22.775 11.867 22.754 11.85 3.66 1.913 8.285.682 10.27-3.015 2.054-3.825.615-8.585-3.157-10.542-7.675-3.972-15.373-7.965-23.091-11.973-.04-10.076-.076-20.151-.107-30.227 2.091-2.117 4.185-4.235 6.282-6.354 5.695-5.757 8.907-13.58 8.905-21.735-.008-27.788-.012-55.575-.013-83.363 0-16.982 13.768-30.753 30.745-30.742 25.621.014 51.242.046 76.863.096.025 11.051.022 22.101-.009 33.152-.023 8.103 3.176 15.86 8.902 21.549l6.309 6.27c-.045 5.47-2.059 10.754-5.669 14.923-2.597 2.999-2.92 7.432-.338 10.335a7.47 7.47 0 0 0 5.712 2.52 7.857 7.857 0 0 0 5.778-2.641c6.265-7.021 9.783-15.98 9.868-25.252.005 0 .187-18.863.225-32.986 17.943-6.31 30.839-23.096 30.687-42.82-.202-24.983-21.189-45.621-46.526-45.954z" data-original="url(#r)" class=""></path></g></svg>